<svg xmlns="http://www.w3.org/2000/svg" viewBox="1014 1 294 182"><title>Formalaunch, symbole</title><path fill="#FFFFFF" fill-rule="evenodd" d="M1045.50 182.23C1040.47 181.32 1034.08 179.08 1027.72 176.00C1024.81 174.59 1021.77 172.91 1021.31 172.45C1021.18 172.33 1020.63 171.93 1020.08 171.55C1019.53 171.18 1018.79 170.62 1018.43 170.31C1018.07 170.00 1017.40 169.42 1016.93 169.02C1016.46 168.61 1015.65 167.86 1015.11 167.35L1014.14 166.42L1014.20 164.92C1014.28 163.25 1014.44 162.82 1015.47 161.65C1016.13 160.91 1016.21 160.87 1018.28 160.34C1025.87 158.40 1030.14 156.19 1034.29 152.04C1038.06 148.27 1041.24 142.36 1042.43 136.92C1042.84 135.04 1042.92 131.85 1042.60 130.04C1042.32 128.43 1041.54 125.83 1040.55 123.26L1039.98 121.76L1041.01 120.26C1041.57 119.43 1043.00 117.33 1044.18 115.58L1046.33 112.42L1045.76 107.92C1044.56 98.42 1044.26 93.58 1044.51 88.08C1044.84 80.70 1045.89 75.77 1048.48 69.46C1048.84 68.57 1049.09 67.81 1049.03 67.77C1048.97 67.73 1041.94 65.07 1033.42 61.86C1024.89 58.65 1017.78 55.97 1017.62 55.91C1017.32 55.79 1017.06 55.11 1017.15 54.67C1017.22 54.29 1017.85 53.67 1018.50 53.34C1018.82 53.17 1051.48 41.29 1091.08 26.94L1163.09 0.83L1234.25 27.09C1317.86 57.94 1308.25 54.36 1307.97 54.51C1307.85 54.58 1295.04 59.34 1279.50 65.09C1263.96 70.84 1251.17 75.57 1251.08 75.61C1250.93 75.67 1249.64 74.80 1248.70 74.00C1248.49 73.82 1248.08 73.51 1247.78 73.30C1247.19 72.89 1245.60 71.64 1245.08 71.19C1244.90 71.03 1244.23 70.53 1243.58 70.09C1242.94 69.64 1242.04 69.00 1241.58 68.66C1240.34 67.73 1237.12 65.93 1234.98 64.97C1229.06 62.32 1216.12 59.23 1206.08 58.09C1201.97 57.62 1191.07 56.68 1187.83 56.51C1186.05 56.41 1182.37 56.21 1179.67 56.05C1172.75 55.64 1155.52 55.64 1148.42 56.05C1145.67 56.21 1141.92 56.41 1140.08 56.51C1135.77 56.73 1127.07 57.42 1123.25 57.84C1111.38 59.16 1098.18 62.19 1091.67 65.09C1089.91 65.87 1086.86 67.50 1086.46 67.88C1086.35 67.99 1085.76 68.41 1085.17 68.82C1084.09 69.55 1081.95 71.38 1080.84 72.50C1080.37 72.98 1079.70 73.73 1077.35 76.37C1077.29 76.44 1072.91 75.15 1067.62 73.51C1062.33 71.86 1057.88 70.49 1057.72 70.47C1057.37 70.40 1055.81 74.23 1054.91 77.35C1053.16 83.43 1052.15 92.01 1052.41 98.67C1052.71 106.74 1053.58 109.96 1056.67 114.50C1056.88 114.82 1058.61 117.49 1059.30 118.58C1059.59 119.04 1060.05 119.84 1060.33 120.37L1060.83 121.32L1060.57 122.45C1059.65 126.37 1059.44 129.64 1059.92 132.42C1060.06 133.23 1060.62 135.66 1061.16 137.82C1064.12 149.69 1064.49 155.53 1062.82 164.17C1061.65 170.23 1060.15 173.99 1057.07 178.62L1055.50 180.99L1054.37 181.32C1051.84 182.06 1050.91 182.21 1048.42 182.26C1047.04 182.29 1045.73 182.27 1045.50 182.23ZM1084.00 102.37L1084.00 78.38L1085.40 77.07C1087.26 75.31 1087.65 74.97 1088.33 74.50C1088.65 74.28 1088.95 74.05 1089.00 73.98C1089.15 73.77 1091.75 72.21 1093.00 71.58C1099.00 68.56 1113.54 65.18 1126.25 63.84C1138.53 62.56 1157.76 61.83 1170.93 62.16C1189.04 62.61 1200.06 63.42 1209.58 65.02C1223.51 67.35 1231.41 69.61 1236.24 72.65C1238.46 74.05 1239.07 74.55 1241.46 76.94L1243.50 78.99L1243.50 102.41C1243.50 115.29 1243.48 125.83 1243.45 125.83C1243.34 125.83 1240.91 125.00 1240.58 124.85C1240.40 124.76 1239.48 124.36 1238.55 123.95C1237.61 123.54 1234.69 122.08 1232.05 120.70C1217.53 113.12 1206.91 109.34 1190.33 105.84C1176.94 103.01 1165.15 102.28 1151.68 103.42C1140.67 104.36 1126.57 107.46 1115.81 111.30C1106.31 114.70 1100.50 117.33 1090.86 122.62C1088.42 123.96 1085.87 125.35 1085.21 125.71L1084.00 126.36L1084.00 102.37Z"></path></svg>